<svg width="32" height="32" viewBox="0 0 32 32" fill="none" xmlns="http://www.w3.org/2000/svg">
<path d="M30.1706 8.56815C28.184 4.78914 24.8449 2.00565 20.7627 0.73277C16.6854 -0.540108 12.3554 -0.143882 8.57046 1.83725C4.79043 3.82334 2.00619 7.16155 0.732968 11.2377C-0.540254 15.3139 -0.14392 19.6476 1.83775 23.4316C2.92766 25.5068 4.42382 27.28 6.2321 28.6717L5.30071 30.2863C4.85979 31.0491 5.4097 32 6.29154 32H10.2747H16.2395C18.7216 31.9653 21.1739 31.3512 23.4379 30.1625C27.2229 28.1764 30.0072 24.8382 31.2754 20.762C32.5387 16.7106 32.1374 12.3224 30.1706 8.56815Z" fill="#247EFF"/>
<path d="M21.9653 16.9663L21.6732 16.8623C21.6534 16.8574 21.6336 16.8623 21.6237 16.8821L20.9555 18.0949C20.5149 18.8969 19.5546 19.2533 18.6982 18.9464C17.8666 18.6444 17.3617 17.7979 17.4953 16.9218L17.6785 15.704C17.6834 15.6842 17.6686 15.6644 17.6537 15.6595L17.5844 15.6347C17.5646 15.6298 17.5448 15.6347 17.5349 15.6545L16.9013 16.7089C16.4459 17.4663 15.5202 17.793 14.6886 17.491C13.8322 17.1792 13.3323 16.2931 13.5055 15.4021L13.7728 14.0358C13.7778 14.016 13.7679 13.9962 13.7481 13.9913L13.4461 13.8824C13.06 13.7438 12.862 13.3181 13.0006 12.9319C13.1392 12.5458 13.5649 12.3478 13.951 12.4864L14.0154 12.5112C14.0401 12.5211 14.0649 12.5062 14.0698 12.4815L14.3619 10.9717C14.5055 10.2391 15.2678 9.80841 15.9707 10.0609C16.5449 10.2688 16.8716 10.8677 16.7429 11.4618L16.0944 14.4714C16.0895 14.4912 16.0994 14.511 16.1192 14.5209C16.139 14.5259 16.1588 14.5209 16.1687 14.5061L17.9012 11.6994C18.1785 11.2489 18.7329 11.0558 19.2279 11.239C19.7229 11.4172 20.0249 11.9221 19.9506 12.4468L19.4754 15.704C19.4704 15.7238 19.4853 15.7436 19.5001 15.7486C19.5199 15.7535 19.5397 15.7486 19.5496 15.7288L20.9852 12.9963C21.2673 12.4567 21.9059 12.2092 22.4801 12.4171C23.183 12.6696 23.4899 13.4913 23.1335 14.1497L22.391 15.4961C22.3811 15.5159 22.391 15.5456 22.4108 15.5555L22.4752 15.5803C22.8613 15.7189 23.0593 16.1446 22.9207 16.5307C22.7771 16.9069 22.3514 17.1049 21.9653 16.9663Z" fill="white"/>
<path d="M7.82252 14.0207C7.38691 16.3721 8.11458 18.8026 9.70357 20.5797C10.1441 21.0697 10.6688 21.4954 11.2233 21.8519C11.6935 22.1538 12.4261 21.9509 12.6786 21.4558C12.9558 20.9212 12.7875 20.3223 12.2826 20.0005C12.139 19.9065 11.9955 19.8075 11.8569 19.7035C11.9311 19.7629 12.0103 19.8174 12.0846 19.8768C11.6341 19.5302 11.2332 19.1243 10.8867 18.6739C10.9411 18.7481 11.0005 18.8224 11.055 18.8917C10.8074 18.56 10.5847 18.2135 10.4015 17.8422C10.357 17.7482 10.3124 17.6591 10.2679 17.565C10.2481 17.5155 10.2283 17.471 10.2085 17.4215C10.3471 17.7333 10.2629 17.5502 10.2382 17.4809C10.1639 17.2878 10.0996 17.0948 10.0402 16.8968C9.98573 16.6988 9.93623 16.4958 9.89663 16.2978C9.87682 16.2038 9.84712 15.8473 9.87682 16.2137C9.86692 16.1097 9.85207 16.0107 9.84217 15.9067C9.80752 15.4959 9.81742 15.085 9.86197 14.6791C9.85207 14.7682 9.84217 14.8623 9.82732 14.9514C9.84217 14.8128 9.86692 14.6791 9.89167 14.5455C9.99068 13.996 9.71347 13.3723 9.11945 13.2485C8.58484 13.1396 7.93142 13.4317 7.82252 14.0207Z" fill="white"/>
<path d="M14.446 24.174C15.0338 24.174 15.5103 23.6975 15.5103 23.1097C15.5103 22.5219 15.0338 22.0454 14.446 22.0454C13.8582 22.0454 13.3817 22.5219 13.3817 23.1097C13.3817 23.6975 13.8582 24.174 14.446 24.174Z" fill="white"/>
<path d="M30.1713 8.56815C28.1841 4.78914 24.8441 2.00565 20.7607 0.73277C16.6823 -0.540108 12.3512 -0.143881 8.56518 1.83725C4.81384 3.80848 2.0437 7.10707 0.755259 11.1436C-0.54309 15.2149 -0.156559 19.6476 1.83061 23.4316C2.92083 25.5068 4.4174 27.28 6.22617 28.6717L5.29453 30.2863C4.85348 31.0491 5.40355 32 6.28563 32H10.2699H16.2363H16.2314C18.7141 31.9653 21.1721 31.3512 23.4318 30.1625C27.2178 28.1764 30.0028 24.8382 31.2714 20.762C32.54 16.7106 32.1386 12.3224 30.1713 8.56815ZM28.4369 19.8755C27.4012 23.1939 25.1315 25.913 22.0541 27.5276C20.1611 28.5231 18.0996 29.0233 16.0183 29.0233C14.715 29.0233 13.4067 28.8252 12.1232 28.429C8.80304 27.3939 6.08246 25.1255 4.46695 22.0498C2.85145 18.9741 2.52934 15.4427 3.56505 12.1243C4.60075 8.80589 6.87039 6.08678 9.94777 4.47216C11.8408 3.47664 13.9072 2.97145 15.9836 2.97145C17.2869 2.97145 18.5952 3.16956 19.8787 3.56579C23.1989 4.60093 25.9194 6.86933 27.535 9.94504C29.1554 13.0307 29.4726 16.5521 28.4369 19.8755Z" fill="#0066FF"/>
</svg>
